# File generated by ImageToStl.com - Free Image and 3D model conversion tools

mtllib pile_of_trash_and_garbage_3_piece_set.mtl

o obj1
v 4.82622725 0.17974351 0.07030535
v 5.08609134 0.07371091 0.20664583
v 5.03434259 0.19679303 -0.09600092
v 4.55453692 0.2625373 0.00708367
v 4.60275938 0.2625373 -0.09600092
v 4.44351745 0.33908367 -0.09600091
v 4.82622725 0.17974351 -0.26230717
v 4.90181321 0.17420791 -0.09600092
v 4.31983215 0.2625373 -0.34436226
v 4.19953889 0.2625373 -0.09600092
v 4.55453692 0.2625373 -0.19908552
v 4.31983215 0.2625373 0.15236047
v 5.22987586 0.07924646 -0.09600092
v 5.08609134 0.07371091 -0.39864764
v 3.83064228 0.02559224 -0.09600092
v 4.08009511 0.19028585 -0.09600092
v 4.2159673 0.19028585 -0.50260615
v 4.0014956 0.02559224 -0.64997911
v 4.71777217 0.19028585 -0.30277401
v 5.1214025 0.02559224 -0.51454282
v 5.1214025 0.02559224 0.32254094
v 4.71777217 0.19028585 0.11077219
v 4.37606628 0.19028585 0.39529023
v 4.21247876 0.02559224 0.59766656
v 3.88348359 0.02559224 0.25083283
v 5.21929663 0.02559224 0.11327001
v 5.1214025 0.02559224 0.32254094
v 4.21247876 0.02559224 0.59766656
v 4.25968572 0.2625373 0.02817977
v 4.0014956 0.02559224 -0.64997911
v 5.1214025 0.02559224 -0.51454282
v 5.31719077 0.02559224 -0.09600092
v 3.83064228 0.02559224 -0.09600092
v 3.88348359 0.02559224 0.25083283
v 4.22808069 0.19028585 0.14964467
v 4.81449829 0.19028585 -0.09600092
v 5.31719077 0.02559224 -0.09600092
v 5.15798378 0.07647868 0.05532245
v 5.21929663 0.02559224 0.11327001
vn 0.15722 0.96807 0.19523
vn 0.33928 0.8969 0.28366
vn 0.25806 0.96613 -0
vn 0.28939 0.92389 0.25035
vn 0.36444 0.93123 -0
vn 0.09865 0.99512 0
vn 0.15722 0.96807 -0.19523
vn -0.05359 0.99856 0
vn -0.08957 0.94344 -0.3192
vn -0.42773 0.90304 0.03951
vn 0.29232 0.90618 -0.30558
vn -0.24368 0.91738 0.3147
vn 0.50709 0.86189 0.00197
vn 0.34462 0.89404 -0.28624
vn -0.9718 -0.23579 -0.00057
vn -0.49998 0.86587 0.01689
vn -0.16578 0.88631 -0.43241
vn -0.66089 -0.11544 -0.74155
vn 0.2045 0.89854 -0.38834
vn 0.57943 -0.21923 -0.78498
vn 0.63371 -0.21065 0.74434
vn 0.23578 0.92322 0.30344
vn -0.02548 0.90858 0.41692
vn -0.39318 -0.11439 0.91232
vn -0.86575 -0.21189 0.45341
vn 0.86473 -0.27705 0.4189
vn -0.42583 0.87565 0.22786
vn 0.97846 -0.20635 0.00622
vn -0.49653 0.82019 0.28415
vn 0.21089 0.97751 -0
vn 0.49107 0.83651 0.2431
vt 0.53603 0.38503
vt 0.5085 0.46136
vt 0.58531 0.42898
vt 0.54458 0.31258
vt 0.57049 0.3209
vt 0.56551 0.2822
vt 0.62056 0.37329
vt 0.58086 0.39714
vt 0.61586 0.24975
vt 0.56001 0.2285
vt 0.5933 0.30624
vt 0.50718 0.26181
vt 0.59352 0.4847
vt 0.66732 0.43858
vt 0.55182 0.11859
vt 0.55691 0.19507
vt 0.64922 0.22296
vt 0.70073 0.16425
vt 0.62747 0.34425
vt 0.70073 0.44623
vt 0.47811 0.47774
vt 0.52141 0.3588
vt 0.45499 0.27959
vt 0.38173 0.25393
vt 0.07674 0.46982
vt 0.14921 0.15017
vt 0.09564 0.16776
vt 0.00234 0.37994
vt 0.53303 0.24403
vt 0.29847 0.46762
vt 0.29847 0.19229
vt 0.20279 0.13258
vt 0.15923 0.49279
vt 0.4567 0.14361
vt 0.5 0.23495
vt 0.57782 0.37523
vt 0.59792 0.5116
vt 0.55091 0.47407
vt 0.53733 0.49667
usemtl mat0
f 1/1/1 2/2/2 3/3/3
f 4/4/4 5/5/5 6/6/6
f 7/7/7 8/8/8 3/3/3
f 9/9/9 10/10/10 6/6/6
f 5/5/5 11/11/11 6/6/6
f 12/12/12 4/4/4 6/6/6
f 11/11/11 9/9/9 6/6/6
f 13/13/13 14/14/14 3/3/3
f 8/8/8 1/1/1 3/3/3
f 14/14/14 7/7/7 3/3/3
f 15/15/15 16/16/16 17/17/17
f 15/15/15 17/17/17 18/18/18
f 18/18/18 17/17/17 19/19/19
f 18/18/18 19/19/19 20/20/20
f 21/21/21 22/22/22 23/23/23
f 21/21/21 23/23/23 24/24/24
f 25/25/25 26/26/26 27/27/21
f 25/25/25 27/27/21 28/28/24
f 10/10/10 29/29/27 12/12/12
f 10/10/10 12/12/12 6/6/6
f 30/30/18 31/31/20 32/32/28
f 30/30/18 32/32/28 33/33/15
f 34/34/25 35/35/29 16/16/16
f 34/34/25 16/16/16 15/15/15
f 10/10/10 9/9/9 17/17/17
f 10/10/10 17/17/17 16/16/16
f 9/9/9 11/11/11 19/19/19
f 9/9/9 19/19/19 17/17/17
f 5/5/5 4/4/4 22/22/22
f 5/5/5 22/22/22 36/36/30
f 4/4/4 12/12/12 23/23/23
f 4/4/4 23/23/23 22/22/22
f 29/29/27 10/10/10 16/16/16
f 29/29/27 16/16/16 35/35/29
f 11/11/11 5/5/5 36/36/30
f 11/11/11 36/36/30 19/19/19
f 7/7/7 14/14/14 20/20/20
f 7/7/7 20/20/20 19/19/19
f 14/14/14 13/13/13 37/37/28
f 14/14/14 37/37/28 20/20/20
f 1/1/1 8/8/8 36/36/30
f 1/1/1 36/36/30 22/22/22
f 2/2/2 1/1/1 22/22/22
f 2/2/2 22/22/22 21/21/21
f 38/38/31 2/2/2 21/21/21
f 38/38/31 21/21/21 39/39/26
f 8/8/8 7/7/7 19/19/19
f 8/8/8 19/19/19 36/36/30
f 2/2/2 38/38/31 13/13/13
f 2/2/2 13/13/13 3/3/3
f 13/13/13 38/38/31 39/39/26
f 13/13/13 39/39/26 37/37/28
f 12/12/12 29/29/27 35/35/29
f 12/12/12 35/35/29 23/23/23
f 24/24/24 23/23/23 35/35/29
f 24/24/24 35/35/29 34/34/25
f 33/33/15 32/32/28 26/26/26
f 33/33/15 26/26/26 25/25/25
# Vertices: 39, normals: 31, texture coordinates: 39, faces: 58

o obj2
v 2.80868769 0.0554499 0.19945145
v 2.90268731 0.07247012 0.25644135
v 2.90268731 0.07650938 0.1652247
v 2.83564591 0.05790674 0.15518638
v 2.99668765 0.0554499 0.19945145
v 2.96972966 0.05790671 0.15518638
v 2.90268755 0.0578584 0.13203678
v 1.7291019 -0.00438938 -0.24677484
v 1.89258385 0.03669763 -0.24677484
v 1.76954556 0.03669763 -0.39850456
v 1.64656115 -0.00438938 -0.52148879
v 2.20397139 -0.00438938 -0.92200291
v 2.2039721 0.03669763 -0.73560429
v 2.43237185 0.03669763 -0.52686739
v 2.55535626 -0.00438938 -0.64985168
v 2.79867864 -0.00438938 -0.30105227
v 2.63519692 0.08096216 -0.30105227
v 2.52649713 0.03669763 -0.03125364
v 2.64948177 -0.00438938 0.04898396
v 2.20397139 -0.00438938 0.24587837
v 2.2039721 0.03669763 0.05947977
v 1.76071143 0.03669763 -0.01848145
v 1.63772702 -0.00438938 0.10450277
v 2.20646715 -0.00438938 -0.24677484
v 2.79867864 -0.00438938 -0.30105227
v 2.64948177 -0.00438938 0.04898396
v 2.20397139 -0.00438938 0.24587837
v 2.36368203 0.05792449 -0.45817763
v 2.54388833 0.08135135 -0.30105227
v 1.98389196 0.05792449 -0.24677484
v 1.95013571 0.05792449 -0.05183423
v 2.07761836 0.13046765 -0.2146513
v 2.03850746 0.13046765 -0.24677485
v 2.4578073 0.05792449 -0.07606837
v 2.2039721 0.05792449 -0.04462865
v 1.8941853 0.05792449 -0.37693077
v 2.2039721 0.05792449 -0.63149595
v 2.08120871 0.13046765 -0.24677485
v 2.10974169 0.13046765 -0.19808742
v 2.14186525 0.13046765 -0.2146513
v 2.07761836 0.13046765 -0.27889842
v 2.10974169 0.13046765 -0.29546228
v 2.47065258 0.09763508 -0.28146768
v 2.40271354 0.05337056 -0.39270049
v 2.19695926 0.11418393 -0.27730489
v 2.19714594 0.1141839 -0.24677485
v 2.14186525 0.13046765 -0.27889842
v 2.12391019 0.13046765 -0.24677485
v 1.7291019 -0.00438938 -0.24677484
v 1.63772702 -0.00438938 0.10450277
v 2.40271354 0.05337056 -0.15716499
v 2.19695926 0.1141839 -0.21624479
v 1.64656115 -0.00438938 -0.52148879
v 2.20397139 -0.00438938 -0.92200291
v 2.55535626 -0.00438938 -0.64985168
v 2.62031937 -0.00335214 0.21896318
v 2.77305269 0.03483701 0.21896318
v 2.82270241 0.03483701 0.1389778
v 2.72846484 -0.00335214 0.0447405
v 2.90268755 -0.00335214 -0.01544237
v 2.90268755 0.03483701 0.11134797
v 2.98267317 0.03483701 0.1389778
v 3.07691073 -0.00335214 0.0447405
v 3.18505621 -0.00335214 0.21896318
v 3.03232265 0.03483701 0.21896318
v 2.98267317 0.03483701 0.2989485
v 3.07691073 -0.00335214 0.39318582
v 2.90268755 -0.00335214 0.45336875
v 2.90268755 0.03483701 0.32657835
v 2.82270241 0.03483701 0.2989485
v 2.72846484 -0.00335214 0.39318582
v 2.90268731 -0.00335214 0.21896318
v 3.18505621 -0.00335214 0.21896318
v 3.07691073 -0.00335214 0.39318582
v 2.90268755 -0.00335214 0.45336875
v 2.90268731 0.05613878 0.29298761
v 2.62031937 -0.00335214 0.21896318
v 2.72846484 -0.00335214 0.39318582
v 2.72846484 -0.00335214 0.0447405
v 2.90268755 -0.00335214 -0.01544237
v 3.07691073 -0.00335214 0.0447405
vn -0.46832 0.8826 -0.04121
vn -0 0.96578 0.25936
vn -0 0.97542 -0.22034
vn -0.37599 0.8244 -0.42307
vn 0.46832 0.8826 -0.04121
vn 0.37598 0.82441 -0.42307
vn -0 0.76379 -0.64546
vn -0.97547 -0.21182 0.05987
vn -0.2303 0.97239 0.03765
vn -0.24734 0.96882 0.01489
vn -0.89414 -0.07068 -0.44217
vn 0.01784 -0.0673 -0.99757
vn 0.0078 0.98114 -0.19314
vn 0.16643 0.96149 -0.21874
vn 0.66525 -0.16656 -0.72781
vn 0.99372 -0.09222 -0.06335
vn 0.23566 0.97117 -0.03593
vn 0.15997 0.96144 0.22372
vn 0.71665 -0.15643 0.67966
vn 0.0678 -0.10876 0.99175
vn 0.01756 0.96828 0.24924
vn -0.19179 0.98085 0.03394
vn -0.8043 -0.02255 0.5938
vn -0 -1 0
vn 0.14497 0.97689 -0.15704
vn 0.02818 0.99921 -0.02815
vn -0.43663 0.8966 0.07387
vn -0.12698 0.97761 0.16778
vn -0.17577 0.97631 0.12616
vn -0.46059 0.88449 0.07436
vn 0.08201 0.97925 0.18532
vn 0.02029 0.94788 0.31799
vn -0.22393 0.97358 -0.04476
vn 0.01781 0.98196 -0.18822
vn 0 1 0
vn 0.00137 0.96499 0.26229
vn 0.12839 0.98691 0.09758
vn -0.18839 0.98022 -0.06063
vn -0.03167 0.98816 -0.15013
vn 0.00751 0.99992 0.01013
vn 0.04214 0.98211 -0.18352
vn 0.19024 0.97496 -0.11513
vn 0.1758 0.98431 0.01498
vn 0.16307 0.98586 -0.0385
vn 0.08394 0.99647 0
vn 0.17011 0.98325 0.06537
vn 0.25574 0.96634 -0.02804
vn -0.99549 -0.09482 -0
vn -0.31059 0.94976 0.03857
vn -0.29473 0.87824 -0.37659
vn -0.63333 -0.11723 -0.76495
vn -0 -0.12284 -0.99243
vn -0 0.86991 -0.49321
vn 0.29473 0.87824 -0.37659
vn 0.63333 -0.11723 -0.76496
vn 0.99549 -0.09482 -0
vn 0.31059 0.94976 0.03857
vn 0.19092 0.95089 0.24363
vn 0.63333 -0.11723 0.76496
vn -0 -0.12284 0.99243
vn -0 0.95823 0.286
vn -0.19092 0.95089 0.24363
vn -0.63333 -0.11723 0.76495
vn 0 -1 0
vn -0 0.9488 0.31588
vt 0.78127 0.64809
vt 0.80311 0.63528
vt 0.78643 0.62551
vt 0.77585 0.63718
vt 0.80359 0.60996
vt 0.79143 0.61058
vt 0.77904 0.62119
vt 0.90814 0.27521
vt 0.88279 0.30979
vt 0.93185 0.3089
vt 0.9768 0.30092
vt 0.9768 0.47716
vt 0.93668 0.44856
vt 0.85975 0.46555
vt 0.86667 0.5116
vt 0.75684 0.50871
vt 0.78384 0.47024
vt 0.74283 0.40905
vt 0.7054 0.42337
vt 0.73203 0.29944
vt 0.77197 0.32852
vt 0.85468 0.25031
vt 0.84823 0.20523
vt 0.8593 0.82985
vt 0.78343 0.70085
vt 0.73381 0.78274
vt 0.75899 0.9027
vt 0.8557 0.4411
vt 0.79716 0.45226
vt 0.86917 0.32832
vt 0.83383 0.29421
vt 0.84768 0.34538
vt 0.85825 0.3442
vt 0.76293 0.40173
vt 0.79361 0.34414
vt 0.90832 0.33097
vt 0.91468 0.4328
vt 0.85359 0.35095
vt 0.83995 0.3497
vt 0.83862 0.35834
vt 0.86091 0.35458
vt 0.85975 0.36348
vt 0.80476 0.43393
vt 0.83694 0.43827
vt 0.84312 0.37905
vt 0.8367 0.37466
vt 0.85163 0.36763
vt 0.84764 0.35945
vt 0.9294 0.92741
vt 0.87103 0.99766
vt 0.78739 0.40347
vt 0.83048 0.37001
vt 0.99766 0.90394
vt 0.99766 0.73121
vt 0.89045 0.69936
vt 0.76004 0.69468
vt 0.77998 0.65953
vt 0.76822 0.63858
vt 0.73381 0.64795
vt 0.7428 0.59997
vt 0.77211 0.61713
vt 0.7889 0.60324
vt 0.78024 0.56864
vt 0.83383 0.56864
vt 0.81293 0.60324
vt 0.82385 0.62443
vt 0.85799 0.61586
vt 0.84858 0.6619
vt 0.81986 0.64509
vt 0.8038 0.65868
vt 0.81304 0.69264
vt 0.76578 0.14018
vt 0.7283 0.20055
vt 0.77991 0.20055
vt 0.8159 0.17129
vt 0.81164 0.64028
vt 0.80325 0.07981
vt 0.82615 0.12605
vt 0.75165 0.07981
vt 0.71566 0.10907
vt 0.7054 0.15431
usemtl mat0
f 40/40/32 41/41/33 42/42/34
f 43/43/35 40/40/32 42/42/34
f 44/44/36 45/45/37 42/42/34
f 45/45/37 46/46/38 42/42/34
f 41/41/33 44/44/36 42/42/34
f 46/46/38 43/43/35 42/42/34
f 47/47/39 48/48/40 49/49/41
f 47/47/39 49/49/41 50/50/42
f 51/51/43 52/52/44 53/53/45
f 51/51/43 53/53/45 54/54/46
f 55/55/47 56/56/48 57/57/49
f 55/55/47 57/57/49 58/58/50
f 59/59/51 60/60/52 61/61/53
f 59/59/51 61/61/53 62/62/54
f 63/63/55 64/64/47 65/65/50
f 63/63/55 65/65/50 66/66/51
f 56/56/48 53/53/45 67/67/56
f 56/56/48 67/67/56 68/68/57
f 69/69/58 70/70/59 71/71/60
f 69/69/58 71/71/60 72/72/61
f 48/48/40 61/61/53 70/70/59
f 48/48/40 70/70/59 69/69/58
f 60/60/52 57/57/49 73/73/62
f 60/60/52 73/73/62 74/74/63
f 52/52/44 49/49/41 75/75/64
f 52/52/44 75/75/64 76/76/65
f 77/77/66 72/72/61 71/71/60
f 77/77/66 71/71/60 78/78/67
f 74/74/63 73/73/62 79/79/68
f 74/74/63 79/79/68 78/78/67
f 76/76/65 75/75/64 80/80/69
f 76/76/65 80/80/69 81/81/70
f 82/82/71 83/83/72 84/84/73
f 82/82/71 84/84/73 85/85/74
f 67/67/56 76/76/65 81/81/70
f 67/67/56 81/81/70 86/86/75
f 70/70/59 74/74/63 78/78/67
f 70/70/59 78/78/67 71/71/60
f 87/87/76 77/77/66 78/78/67
f 87/87/76 78/78/67 79/79/68
f 53/53/45 52/52/44 76/76/65
f 53/53/45 76/76/65 67/67/56
f 61/61/53 60/60/52 74/74/63
f 61/61/53 74/74/63 70/70/59
f 88/88/39 63/63/55 66/66/51
f 88/88/39 66/66/51 89/89/54
f 58/58/50 57/57/49 60/60/52
f 58/58/50 60/60/52 59/59/51
f 50/50/42 49/49/41 52/52/44
f 50/50/42 52/52/44 51/51/43
f 82/82/71 90/90/77 73/73/62
f 82/82/71 73/73/62 68/68/57
f 85/85/74 84/84/73 86/86/75
f 85/85/74 86/86/75 87/87/76
f 90/90/77 91/91/78 79/79/68
f 90/90/77 79/79/68 73/73/62
f 84/84/73 83/83/72 67/67/56
f 84/84/73 67/67/56 86/86/75
f 91/91/78 85/85/74 87/87/76
f 91/91/78 87/87/76 79/79/68
f 83/83/72 82/82/71 68/68/57
f 83/83/72 68/68/57 67/67/56
f 92/92/42 93/93/43 63/63/55
f 92/92/42 63/63/55 88/88/39
f 86/86/75 81/81/70 77/77/66
f 86/86/75 77/77/66 87/87/76
f 90/90/77 82/82/71 85/85/74
f 90/90/77 85/85/74 91/91/78
f 81/81/70 80/80/69 72/72/61
f 81/81/70 72/72/61 77/77/66
f 49/49/41 48/48/40 69/69/58
f 49/49/41 69/69/58 75/75/64
f 75/75/64 69/69/58 72/72/61
f 75/75/64 72/72/61 80/80/69
f 57/57/49 56/56/48 68/68/57
f 57/57/49 68/68/57 73/73/62
f 93/93/43 94/94/46 64/64/47
f 93/93/43 64/64/47 63/63/55
f 54/54/46 53/53/45 56/56/48
f 54/54/46 56/56/48 55/55/47
f 62/62/54 61/61/53 48/48/40
f 62/62/54 48/48/40 47/47/39
f 95/95/79 96/96/80 97/97/81
f 95/95/79 97/97/81 98/98/82
f 99/99/83 100/100/84 101/101/85
f 99/99/83 101/101/85 102/102/86
f 103/103/87 104/104/88 105/105/89
f 103/103/87 105/105/89 106/106/90
f 107/107/91 108/108/92 109/109/93
f 107/107/91 109/109/93 110/110/94
f 111/111/95 112/112/87 113/113/90
f 111/111/95 113/113/90 114/114/91
f 115/115/96 96/96/80 109/109/93
f 115/115/96 109/109/93 108/108/92
f 104/104/88 115/115/96 108/108/92
f 104/104/88 108/108/92 105/105/89
f 116/116/79 111/111/95 114/114/91
f 116/116/79 114/114/91 117/117/94
f 106/106/90 105/105/89 108/108/92
f 106/106/90 108/108/92 107/107/91
f 98/98/82 97/97/81 100/100/84
f 98/98/82 100/100/84 99/99/83
f 118/118/82 119/119/83 111/111/95
f 118/118/82 111/111/95 116/116/79
f 119/119/83 120/120/86 112/112/87
f 119/119/83 112/112/87 111/111/95
f 102/102/86 101/101/85 104/104/88
f 102/102/86 104/104/88 103/103/87
f 110/110/94 109/109/93 96/96/80
f 110/110/94 96/96/80 95/95/79
f 40/40/32 43/43/35 97/97/81
f 40/40/32 97/97/81 96/96/80
f 46/46/38 45/45/37 101/101/85
f 46/46/38 101/101/85 100/100/84
f 43/43/35 46/46/38 100/100/84
f 43/43/35 100/100/84 97/97/81
f 45/45/37 44/44/36 104/104/88
f 45/45/37 104/104/88 101/101/85
f 44/44/36 41/41/33 115/115/96
f 44/44/36 115/115/96 104/104/88
f 41/41/33 40/40/32 96/96/80
f 41/41/33 96/96/80 115/115/96
# Vertices: 81, normals: 65, texture coordinates: 81, faces: 122

o obj3
v -0.22860113 0.18715046 0.14728774
v -0.03596348 0.18715046 0.11217649
v -0.23643377 0.26403987 -0.05338399
v -0.54623276 0.18715046 -0.08046116
v -0.5194459 0.18715046 -0.01154713
v -0.42123884 0.18715046 0.11217649
v -0.22860116 0.18715046 -0.2733146
v -0.42123884 0.18715046 -0.18833879
v 0.02433114 0.21532263 -0.01154713
v 0.06428172 0.21479063 -0.08046116
v -0.03596348 0.24191807 -0.27309883
v -0.96253604 -1E-08 -0.11240588
v -0.83771288 0.05785137 -0.10603332
v -0.54360402 0.05785137 -0.488612
v -0.62486249 -1E-08 -0.56410468
v -0.00536207 -1E-08 -0.78516686
v -0.00041857 0.05785139 -0.68815339
v 0.54276693 0.05785137 -0.6492188
v 0.61413831 -1E-08 -0.73190629
v 0.86595035 -1E-08 0.24130453
v 0.72422057 0.0583867 0.17689337
v 0.54276693 0.05785137 0.43715209
v 0.61413831 -1E-08 0.50709456
v -0.00536207 -1E-08 0.63170218
v -0.00041853 0.05785139 0.54590946
v -0.54360402 0.05785137 0.43715209
v -0.62486249 -1E-08 0.50709456
v -0.00841171 -1E-08 0.30567884
v 0.86595035 -1E-08 0.24130453
v 0.61413831 -1E-08 0.50709456
v -0.00536207 -1E-08 0.63170218
v -0.76998872 0.05785137 0.18711491
v -0.47863436 0.0799989 0.29753089
v -0.67405528 0.0799989 0.08074264
v -0.08212885 0.0799989 -0.50950152
v -0.47863436 0.0799989 -0.35105932
v 0.13867289 0.25692809 0.29753089
v -0.08212885 0.0799989 0.37464714
v 0.88377076 0.05785137 -0.10603332
v 0.31437665 0.0799989 -0.49548012
v 0.34939295 0.25692809 -0.09897462
v -0.73152333 0.0799989 -0.09897462
v 0.26949561 0.25692809 0.08074264
v 0.75549251 0.0583867 -0.03422472
v 0.61359733 0.17645182 -0.03422473
v 0.59554046 0.18999042 0.07897235
v 0.67031562 0.13448016 0.07897238
v -0.00536207 -1E-08 -0.78516686
v 0.61413831 -1E-08 -0.73190629
v 1.00080776 -1E-08 -0.11240588
v 0.01913586 -1E-08 -0.12818959
v 1.00080776 -1E-08 -0.11240588
v -0.8827737 -1E-08 0.24130453
v 0.70221072 0.0583867 0.15572728
v 0.55022103 0.0583867 0.3432427
v 0.45865428 0.17645182 0.10326456
v 0.39148772 0.17645182 0.29088497
v 0.62259775 0.14878619 0.14581539
v 0.54880631 0.20429642 0.13573672
v 0.49597025 0.18999042 0.1885509
v 0.56823218 0.13448016 0.19959672
v -0.96253604 -1E-08 -0.11240588
v -0.8827737 -1E-08 0.24130453
v -0.62486249 -1E-08 -0.56410468
v -0.62486249 -1E-08 0.50709456
vn -0.09057 0.91427 0.39486
vn -0.13855 0.96752 0.21147
vn -0.06764 0.99684 0.04166
vn -0.39692 0.91019 -0.11837
vn -0.36007 0.91096 0.20127
vn -0.22942 0.90855 0.34914
vn -0.1821 0.87888 -0.44091
vn -0.25974 0.88818 -0.37905
vn -0.01415 0.99816 0.05891
vn 0.03301 0.9958 -0.08534
vn -0.00711 0.94343 -0.33149
vn -0.96944 -0.17132 -0.17563
vn -0.32187 0.94329 -0.08123
vn -0.19984 0.93485 -0.29347
vn -0.59855 -0.21462 -0.7718
vn -0.11688 -0.23965 -0.9638
vn -0.04616 0.9353 -0.35084
vn 0.1973 0.91656 -0.34784
vn 0.54157 -0.19064 -0.81875
vn 0.83591 -0.19277 0.51391
vn 0.18441 0.97561 0.11909
vn 0.20957 0.89259 0.39919
vn 0.51414 -0.20159 0.83368
vn -0.00501 -0.26415 0.96447
vn -0.01202 0.85359 0.5208
vn -0.15285 0.93244 0.32741
vn -0.51135 -0.21134 0.83298
vn 0 -1 0
vn -0.2805 0.94707 0.15616
vn -0.13728 0.95891 0.24828
vn -0.29237 0.9433 0.15715
vn -0.06464 0.94467 -0.32159
vn -0.19068 0.9387 -0.28721
vn -0.03832 0.9453 0.32394
vn -0.10854 0.92616 0.36117
vn 0.34182 0.93767 -0.06277
vn 0.08142 0.96627 -0.24431
vn 0.15321 0.98499 -0.07947
vn -0.27456 0.9594 -0.06451
vn 0.07873 0.99452 0.06873
vn 0.33699 0.93908 0.06764
vn 0.41096 0.91016 0.05215
vn 0.31561 0.94889 -0.00272
vn 0.6913 0.7055 0.15612
vn 0.98309 -0.1578 -0.09288
vn 0 -1 0
vn -0.867 -0.19242 0.45966
vn 0.33667 0.9234 0.18434
vn 0.27083 0.92864 0.25353
vn 0.10021 0.99288 0.06441
vn 0.34334 0.89643 0.28023
vn 0.5796 0.70653 0.40606
vn 0.17668 0.96517 0.19296
vn 0.12463 0.95207 0.27934
vn 0.47581 0.69847 0.53455
vt 0.23373 0.82087
vt 0.23623 0.77301
vt 0.18419 0.81086
vt 0.16208 0.88294
vt 0.17978 0.88027
vt 0.21423 0.86405
vt 0.13011 0.79937
vt 0.14199 0.84882
vt 0.20876 0.75221
vt 0.19446 0.73952
vt 0.14414 0.7534
vt 0.1279 0.9973
vt 0.1378 0.96217
vt 0.05447 0.86904
vt 0.02741 0.8879
vt 0.00234 0.71825
vt 0.03175 0.72261
vt 0.07307 0.59027
vt 0.05302 0.56482
vt 0.32136 0.5466
vt 0.29654 0.58189
vt 0.35094 0.64229
vt 0.37706 0.62635
vt 0.37706 0.79333
vt 0.35056 0.78639
vt 0.29326 0.91783
vt 0.31013 0.9456
vt 0.64904 0.7296
vt 0.67638 0.94715
vt 0.72913 0.8723
vt 0.72913 0.71426
vt 0.21688 0.96169
vt 0.26134 0.8934
vt 0.19523 0.93055
vt 0.07276 0.75247
vt 0.09226 0.85915
vt 0.28418 0.73472
vt 0.30201 0.80015
vt 0.23011 0.5318
vt 0.09729 0.65576
vt 0.20208 0.67078
vt 0.14543 0.93479
vt 0.2408 0.69753
vt 0.24629 0.56627
vt 0.23209 0.60842
vt 0.25795 0.61983
vt 0.26376 0.59878
vt 0.38173 0.78414
vt 0.42534 0.93341
vt 0.59631 0.99766
vt 0.54402 0.75775
vt 0.23406 0.49746
vt 0.22514 0.99766
vt 0.29007 0.58654
vt 0.32778 0.6342
vt 0.25661 0.65156
vt 0.29865 0.67562
vt 0.27621 0.61384
vt 0.26841 0.63258
vt 0.27842 0.64615
vt 0.28929 0.62705
vt 0.49948 0.51627
vt 0.59014 0.51839
vt 0.40538 0.62134
vt 0.66803 0.56852
usemtl mat0
f 121/121/97 122/122/98 123/123/99
f 124/124/100 125/125/101 123/123/99
f 125/125/101 126/126/102 123/123/99
f 127/127/103 128/128/104 123/123/99
f 129/129/105 130/130/106 123/123/99
f 130/130/106 131/131/107 123/123/99
f 122/122/98 129/129/105 123/123/99
f 128/128/104 124/124/100 123/123/99
f 131/131/107 127/127/103 123/123/99
f 126/126/102 121/121/97 123/123/99
f 132/132/108 133/133/109 134/134/110
f 132/132/108 134/134/110 135/135/111
f 136/136/112 137/137/113 138/138/114
f 136/136/112 138/138/114 139/139/115
f 140/140/116 141/141/117 142/142/118
f 140/140/116 142/142/118 143/143/119
f 144/144/120 145/145/121 146/146/122
f 144/144/120 146/146/122 147/147/123
f 148/148/124 149/149/116 150/150/119
f 148/148/124 150/150/119 151/151/120
f 152/152/125 146/146/122 153/153/126
f 152/152/125 153/153/126 154/154/127
f 155/155/128 156/156/129 128/128/104
f 155/155/128 128/128/104 127/127/103
f 145/145/121 142/142/118 157/157/130
f 145/145/121 157/157/130 158/158/131
f 137/137/113 134/134/110 156/156/129
f 137/137/113 156/156/129 155/155/128
f 159/159/132 138/138/114 160/160/133
f 159/159/132 160/160/133 161/161/134
f 161/161/134 160/160/133 131/131/107
f 161/161/134 131/131/107 130/130/106
f 154/154/127 153/153/126 126/126/102
f 154/154/127 126/126/102 125/125/101
f 158/158/131 157/157/130 122/122/98
f 158/158/131 122/122/98 121/121/97
f 156/156/129 162/162/135 124/124/100
f 156/156/129 124/124/100 128/128/104
f 163/163/136 161/161/134 130/130/106
f 163/163/136 130/130/106 129/129/105
f 164/164/137 165/165/138 166/166/139
f 164/164/137 166/166/139 167/167/140
f 134/134/110 133/133/109 162/162/135
f 134/134/110 162/162/135 156/156/129
f 168/168/112 169/169/115 170/170/141
f 168/168/112 170/170/141 171/171/142
f 139/139/115 138/138/114 159/159/132
f 139/139/115 159/159/132 172/172/141
f 173/173/143 152/152/125 133/133/109
f 173/173/143 133/133/109 132/132/108
f 174/174/144 175/175/145 142/142/118
f 174/174/144 142/142/118 141/141/117
f 176/176/146 165/165/138 161/161/134
f 176/176/146 161/161/134 163/163/136
f 175/175/145 177/177/147 157/157/130
f 175/175/145 157/157/130 142/142/118
f 165/165/138 164/164/137 159/159/132
f 165/165/138 159/159/132 161/161/134
f 178/178/148 167/167/140 166/166/139
f 178/178/148 166/166/139 179/179/149
f 176/176/146 177/177/147 180/180/150
f 176/176/146 180/180/150 179/179/149
f 177/177/147 175/175/145 181/181/151
f 177/177/147 181/181/151 180/180/150
f 174/174/144 164/164/137 167/167/140
f 174/174/144 167/167/140 178/178/148
f 175/175/145 174/174/144 178/178/148
f 175/175/145 178/178/148 181/181/151
f 165/165/138 176/176/146 179/179/149
f 165/165/138 179/179/149 166/166/139
f 181/181/151 178/178/148 179/179/149
f 181/181/151 179/179/149 180/180/150
f 177/177/147 176/176/146 163/163/136
f 177/177/147 163/163/136 157/157/130
f 164/164/137 174/174/144 141/141/117
f 164/164/137 141/141/117 159/159/132
f 147/147/123 146/146/122 152/152/125
f 147/147/123 152/152/125 173/173/143
f 157/157/130 163/163/136 129/129/105
f 157/157/130 129/129/105 122/122/98
f 162/162/135 154/154/127 125/125/101
f 162/162/135 125/125/101 124/124/100
f 133/133/109 152/152/125 154/154/127
f 133/133/109 154/154/127 162/162/135
f 171/171/142 170/170/141 149/149/116
f 171/171/142 149/149/116 148/148/124
f 172/172/141 159/159/132 141/141/117
f 172/172/141 141/141/117 140/140/116
f 182/182/108 171/171/142 148/148/124
f 182/182/108 148/148/124 183/183/143
f 184/184/111 168/168/112 171/171/142
f 184/184/111 171/171/142 182/182/108
f 153/153/126 158/158/131 121/121/97
f 153/153/126 121/121/97 126/126/102
f 138/138/114 137/137/113 155/155/128
f 138/138/114 155/155/128 160/160/133
f 146/146/122 145/145/121 158/158/131
f 146/146/122 158/158/131 153/153/126
f 160/160/133 155/155/128 127/127/103
f 160/160/133 127/127/103 131/131/107
f 183/183/143 148/148/124 151/151/120
f 183/183/143 151/151/120 185/185/123
f 143/143/119 142/142/118 145/145/121
f 143/143/119 145/145/121 144/144/120
f 135/135/111 134/134/110 137/137/113
f 135/135/111 137/137/113 136/136/112
# Vertices: 65, normals: 55, texture coordinates: 65, faces: 106

